# This file uses centimeters as units for non-parametric coordinates.

g default
v 3.006655 -2.030130 -8.795978
v 3.256641 -2.030130 -8.545991
v 3.250878 3.456961 -8.910984
v 3.371648 3.456961 -8.790213
v 3.950411 -2.030130 -8.795978
v 3.700425 -2.030130 -8.545991
v 3.706189 3.456961 -8.910984
v 3.585418 3.456961 -8.790213
v 3.250878 3.456961 -9.124754
v 3.371648 3.456961 -9.245524
v 3.006655 -2.030130 -9.239760
v 3.256641 -2.030130 -9.489747
v 3.585418 3.456961 -9.245524
v 3.706189 3.456961 -9.124754
v 3.950411 -2.030130 -9.239760
v 3.700425 -2.030130 -9.489747
v 2.002668 4.587192 -8.323544
v 2.002668 4.587192 -9.712193
v 2.784208 4.587192 -7.542004
v 4.172858 4.587192 -7.542004
v 4.954398 4.587192 -8.323545
v 4.954398 4.587192 -9.712194
v 2.784208 4.587192 -10.493734
v 4.172858 4.587192 -10.493734
v 1.846902 4.852345 -8.249904
v 1.846902 4.852345 -9.785834
v 2.710568 4.852345 -7.386237
v 4.246498 4.852345 -7.386237
v 5.110165 4.852345 -8.249904
v 5.110165 4.852345 -9.785834
v 2.710568 4.852345 -10.649501
v 4.246498 4.852345 -10.649501
v 3.047534 6.243092 -8.815017
v 3.047534 6.243092 -9.220721
v 3.275681 6.243092 -8.586870
v 3.681385 6.243092 -8.586870
v 3.909532 6.243092 -8.815017
v 3.909532 6.243092 -9.220721
v 3.275681 6.243092 -9.448868
v 3.681385 6.243092 -9.448868
v 3.478533 6.516701 -9.017869
v 3.548425 6.488569 -9.167046
v 3.408642 6.488569 -9.167046
v 3.627710 6.488569 -9.087761
v 3.627710 6.488569 -8.947977
v 3.548425 6.488569 -8.868692
v 3.408642 6.488569 -8.868692
v 3.329356 6.488569 -9.087761
v 3.329356 6.488569 -8.947977
v 3.762376 6.326256 -9.301712
v 3.194690 6.326256 -9.301712
v 3.478533 6.326227 -9.395368
v 3.992066 5.543055 -10.095115
v 2.965000 5.543054 -10.095115
v 3.762376 6.326256 -8.734026
v 3.856033 6.326227 -9.017869
v 4.555779 5.543054 -9.531402
v 4.555779 5.543055 -8.504336
v 3.194690 6.326256 -8.734026
v 3.478533 6.326227 -8.640370
v 3.992066 5.543054 -7.940623
v 2.965000 5.543055 -7.940623
v 3.101033 6.326227 -9.017869
v 2.401288 5.543055 -9.531402
v 2.401287 5.543054 -8.504336
v 4.785278 4.851969 -10.324614
v 2.171788 4.851969 -10.324614
v 3.478533 4.849194 -10.760861
v 4.288009 4.643355 -10.738540
v 2.669057 4.643355 -10.738540
v 4.785278 4.851969 -7.711124
v 5.221525 4.849194 -9.017869
v 5.199204 4.643355 -9.827344
v 5.199204 4.643355 -8.208394
v 2.171788 4.851969 -7.711124
v 3.478533 4.849194 -7.274877
v 4.288009 4.643355 -7.297198
v 2.669057 4.643355 -7.297198
v 1.735541 4.849194 -9.017869
v 1.757863 4.643355 -9.827344
v 1.757863 4.643355 -8.208394
v 4.660843 4.587269 -10.200178
v 2.296224 4.587269 -10.200178
v 3.478533 4.588745 -10.595235
v 3.659537 4.413297 -9.402096
v 3.297530 4.413297 -9.402096
v 4.660843 4.587269 -7.835560
v 5.055898 4.588745 -9.017869
v 3.862760 4.413297 -9.198872
v 3.862760 4.413297 -8.836866
v 2.296224 4.587269 -7.835560
v 3.478533 4.588745 -7.440503
v 3.659537 4.413297 -8.633642
v 3.297530 4.413297 -8.633642
v 1.901168 4.588745 -9.017869
v 3.094306 4.413297 -9.198872
v 3.094306 4.413297 -8.836866
v 3.720431 1.062010 -9.131691
v 3.592355 1.062010 -9.259767
v 3.364711 1.062010 -9.259767
v 3.236635 1.062010 -9.131691
v 3.720431 1.062010 -8.904047
v 3.592355 1.062010 -8.775971
v 3.364711 1.062010 -8.775971
v 3.236635 1.062010 -8.904047
v 3.856671 -2.030130 -9.396007
v 3.982953 -2.030130 -9.017869
v 3.661242 3.457033 -9.200578
v 3.100395 -2.030130 -9.396007
v 3.478533 -2.030130 -9.522289
v 2.974113 -2.030130 -9.017869
v 3.295824 3.457033 -9.200578
v 3.478533 3.456989 -9.260963
v 3.661242 3.457033 -8.835160
v 3.721628 3.456989 -9.017869
v 3.856671 -2.030130 -8.639731
v 3.295824 3.457033 -8.835160
v 3.478533 3.456989 -8.774775
v 3.235439 3.456989 -9.017869
v 3.100395 -2.030130 -8.639731
v 3.478533 -2.030130 -8.513449
v 4.343943 5.543051 -9.883278
v 2.613124 5.543051 -9.883278
v 3.478533 5.542700 -10.173827
v 4.343943 5.543051 -8.152460
v 4.634490 5.542700 -9.017869
v 2.613124 5.543051 -8.152460
v 3.478533 5.542700 -7.861911
v 2.322576 5.542700 -9.017869
v 4.856763 4.643220 -10.396098
v 2.100304 4.643220 -10.396098
v 3.478533 4.641748 -10.857138
v 4.856763 4.643220 -7.639640
v 5.317801 4.641748 -9.017869
v 2.100304 4.643220 -7.639640
v 3.478533 4.641748 -7.178600
v 1.639265 4.641748 -9.017869
v 3.786608 4.413300 -9.325944
v 3.170458 4.413300 -9.325944
v 3.478533 4.413512 -9.427580
v 3.786608 4.413300 -8.709794
v 3.888243 4.413512 -9.017869
v 3.170458 4.413300 -8.709794
v 3.478533 4.413512 -8.608158
v 3.068823 4.413512 -9.017869
v 3.672655 1.062063 -9.211991
v 3.284411 1.062063 -9.211991
v 3.672655 1.062063 -8.823747
v 3.284411 1.062063 -8.823747
v 3.220373 1.062010 -9.017869
v 3.736693 1.062010 -9.017869
v 3.478533 1.062010 -9.276029
v 3.478533 1.062010 -8.759709
v 4.080698 -1.066617 -8.808313
v 4.122073 -1.257096 -9.017863
v 4.080698 -1.447574 -9.227412
v 3.961177 -1.581723 -9.375022
v 3.761717 -1.662131 -9.463452
v 3.478533 -1.689960 -9.494069
v 3.195349 -1.662131 -9.463452
v 2.995889 -1.581723 -9.375022
v 2.876368 -1.447574 -9.227412
v 2.834993 -1.257096 -9.017863
v 2.876368 -1.066617 -8.808313
v 2.995889 -0.932440 -8.660729
v 3.195349 -0.852061 -8.572273
v 3.478533 -0.824231 -8.541657
v 3.761717 -0.852061 -8.572273
v 3.961177 -0.932440 -8.660729
vt 0.254160 0.593771
vt 0.253412 0.335477
vt 0.265687 0.335477
vt 0.265687 0.593774
vt 0.245982 0.593778
vt 0.244751 0.335483
vt 0.265687 0.085363
vt 0.243087 0.105906
vt 0.277963 0.335477
vt 0.277215 0.593771
vt 0.265687 0.696934
vt 0.246166 0.696911
vt 0.239599 0.335477
vt 0.241135 0.593771
vt 0.227170 0.120377
vt 0.232462 0.696911
vt 0.288286 0.064820
vt 0.265687 0.001992
vt 0.241757 0.001992
vt 0.286623 0.335483
vt 0.285392 0.593778
vt 0.285208 0.696911
vt 0.224249 0.696911
vt 0.224906 0.001992
vt 0.289618 0.001992
vt 0.304206 0.050353
vt 0.290240 0.593771
vt 0.291776 0.335477
vt 0.298913 0.696911
vt 0.306469 0.001992
vt 0.307126 0.696911
vt 0.343029 0.593771
vt 0.342280 0.335477
vt 0.354556 0.335477
vt 0.354556 0.593774
vt 0.334851 0.593778
vt 0.333620 0.335483
vt 0.354557 0.085363
vt 0.331957 0.064820
vt 0.366832 0.335477
vt 0.366083 0.593771
vt 0.354556 0.696934
vt 0.335035 0.696911
vt 0.321330 0.696911
vt 0.328467 0.335477
vt 0.330003 0.593771
vt 0.316037 0.050353
vt 0.377156 0.105906
vt 0.354556 0.001992
vt 0.330625 0.001992
vt 0.375492 0.335483
vt 0.374261 0.593778
vt 0.374077 0.696911
vt 0.313117 0.696911
vt 0.313774 0.001992
vt 0.378487 0.001992
vt 0.393073 0.120377
vt 0.380645 0.335477
vt 0.379108 0.593771
vt 0.387782 0.696911
vt 0.395338 0.001992
vt 0.395995 0.696911
vt 0.256365 0.762066
vt 0.256351 0.700726
vt 0.278864 0.708435
vt 0.278905 0.766542
vt 0.353397 0.756033
vt 0.353397 0.793983
vt 0.278565 0.849367
vt 0.256192 0.849367
vt 0.437865 0.818755
vt 0.428896 0.827489
vt 0.353359 0.849367
vt 0.256365 0.936668
vt 0.278905 0.932191
vt 0.455370 0.841829
vt 0.437862 0.849367
vt 0.353397 0.904751
vt 0.278864 0.990298
vt 0.256351 0.998008
vt 0.428896 0.871244
vt 0.353397 0.942701
vt 0.455370 0.856905
vt 0.437865 0.879979
vt 0.483871 0.692084
vt 0.461357 0.699793
vt 0.461372 0.638454
vt 0.483911 0.633977
vt 0.461199 0.551152
vt 0.483572 0.551152
vt 0.558404 0.606536
vt 0.558403 0.644486
vt 0.461372 0.463851
vt 0.483911 0.468328
vt 0.558366 0.551152
vt 0.642872 0.581765
vt 0.633902 0.573030
vt 0.461357 0.402511
vt 0.483871 0.410221
vt 0.558404 0.495768
vt 0.642868 0.551152
vt 0.660377 0.558690
vt 0.558403 0.457819
vt 0.633902 0.529275
vt 0.642872 0.520540
vt 0.660377 0.543615
vt 0.441179 0.125473
vt 0.430232 0.200356
vt 0.401986 0.200356
vt 0.414777 0.113055
vt 0.558911 0.180835
vt 0.556163 0.200356
vt 0.414777 0.287657
vt 0.441179 0.275238
vt 0.451709 0.051715
vt 0.472838 0.072845
vt 0.558911 0.219877
vt 0.567124 0.167130
vt 0.472838 0.327867
vt 0.451709 0.348997
vt 0.525467 0.041185
vt 0.513048 0.014783
vt 0.567124 0.233581
vt 0.580828 0.158917
vt 0.513048 0.385929
vt 0.525467 0.359527
vt 0.600350 0.001992
vt 0.600350 0.030238
vt 0.580828 0.241794
vt 0.600350 0.156169
vt 0.600350 0.370474
vt 0.600350 0.398720
vt 0.675232 0.041185
vt 0.687651 0.014783
vt 0.600350 0.244543
vt 0.619871 0.158917
vt 0.687651 0.385929
vt 0.675232 0.359527
vt 0.748991 0.051715
vt 0.727861 0.072845
vt 0.619871 0.241794
vt 0.633575 0.167130
vt 0.727861 0.327867
vt 0.748991 0.348997
vt 0.759521 0.125473
vt 0.785923 0.113055
vt 0.633575 0.233581
vt 0.641788 0.180835
vt 0.785923 0.287657
vt 0.759521 0.275238
vt 0.798713 0.200356
vt 0.770467 0.200356
vt 0.641788 0.219877
vt 0.644537 0.200356
vt 0.823225 0.598029
vt 0.814675 0.606580
vt 0.807137 0.590492
vt 0.837749 0.621104
vt 0.799599 0.606580
vt 0.823225 0.582954
vt 0.829014 0.636975
vt 0.807137 0.631205
vt 0.791048 0.598029
vt 0.814675 0.574403
vt 0.900471 0.683825
vt 0.862521 0.706672
vt 0.785259 0.636975
vt 0.776525 0.621104
vt 0.791048 0.582954
vt 0.837749 0.559879
vt 0.799599 0.574403
vt 0.948068 0.731423
vt 0.889961 0.766462
vt 0.807137 0.715161
vt 0.751753 0.706672
vt 0.829014 0.544009
vt 0.807137 0.549779
vt 0.807137 0.778472
vt 0.724312 0.766462
vt 0.713803 0.683825
vt 0.776524 0.559879
vt 0.862521 0.474312
vt 0.900471 0.497158
vt 0.785259 0.544009
vt 0.666205 0.731423
vt 0.889961 0.414521
vt 0.948068 0.449560
vt 0.807137 0.465822
vt 0.751753 0.474312
vt 0.713803 0.497158
vt 0.807137 0.402511
vt 0.724312 0.414521
vt 0.666205 0.449560
vt 0.042418 0.593771
vt 0.041670 0.335477
vt 0.053945 0.335477
vt 0.053945 0.593774
vt 0.053945 0.132047
vt 0.023404 0.129046
vt 0.066221 0.335477
vt 0.065473 0.593771
vt 0.053945 0.696934
vt 0.034424 0.696911
vt 0.084486 0.129046
vt 0.033009 0.335483
vt 0.001892 0.120377
vt 0.053945 0.001992
vt 0.030014 0.001992
vt 0.073466 0.696911
vt 0.077876 0.001992
vt 0.105998 0.120377
vt 0.074881 0.335483
vt 0.013163 0.001992
vt 0.094727 0.001992
vt 0.134675 0.657246
vt 0.152940 0.363449
vt 0.165216 0.363449
vt 0.165216 0.660247
vt 0.113163 0.648574
vt 0.144280 0.363443
vt 0.165216 0.105152
vt 0.153689 0.105155
vt 0.177492 0.363449
vt 0.195757 0.657246
vt 0.141285 0.696934
vt 0.165216 0.696934
vt 0.124434 0.696934
vt 0.176743 0.105155
vt 0.145695 0.002015
vt 0.165216 0.001992
vt 0.186152 0.363443
vt 0.217269 0.648574
vt 0.189147 0.696934
vt 0.184737 0.002015
vt 0.205998 0.696934
vt 0.227692 0.708435
vt 0.250205 0.700726
vt 0.250190 0.762065
vt 0.227651 0.766542
vt 0.250364 0.849367
vt 0.227991 0.849367
vt 0.250190 0.936668
vt 0.227651 0.932191
vt 0.250205 0.998008
vt 0.227692 0.990298
vt 0.199283 0.762066
vt 0.199269 0.700726
vt 0.221782 0.708435
vt 0.221823 0.766542
vt 0.221483 0.849367
vt 0.199110 0.849367
vt 0.199283 0.936668
vt 0.221823 0.932191
vt 0.221782 0.990298
vt 0.199269 0.998008
vn -0.312188 -0.057905 0.948254
vn -0.291020 0.077382 0.953582
vn 0.000000 0.071194 0.997462
vn 0.000000 -0.056127 0.998424
vn -0.243363 0.073319 -0.967160
vn -0.266245 0.061554 -0.961938
vn 0.000000 0.056296 -0.998414
vn 0.000000 0.078043 -0.996950
vn 0.948254 -0.057905 0.312188
vn 0.949892 0.101847 0.295520
vn 0.993290 0.098985 -0.059810
vn 0.998424 -0.056127 0.000000
vn -0.948254 -0.057905 -0.312188
vn -0.911442 0.092065 -0.400996
vn -0.993290 0.098985 -0.059810
vn -0.998424 -0.056127 0.000000
vn -0.951050 0.076375 0.299452
vn -0.678944 0.083488 0.729428
vn -0.685154 0.093429 0.722382
vn -0.949892 0.101847 0.295520
vn 0.285778 0.078535 0.955072
vn 0.678944 0.083488 0.729428
vn 0.685154 0.093429 0.722382
vn 0.291020 0.077382 0.953582
vn -0.705825 -0.060180 -0.705825
vn -0.631364 0.077136 -0.771641
vn 0.312188 -0.057905 -0.948254
vn 0.705825 -0.060180 -0.705825
vn 0.631364 0.077136 -0.771641
vn 0.266245 0.061554 -0.961938
vn -0.353388 -0.935477 0.000000
vn -0.320326 -0.941582 -0.103991
vn 0.000000 -0.935477 0.353389
vn -0.103991 -0.941582 0.320326
vn -0.948254 -0.057905 0.312188
vn -0.705825 -0.060180 0.705825
vn -0.228362 -0.946415 0.228362
vn -0.320326 -0.941582 0.103991
vn 0.353388 -0.935477 -0.000000
vn 0.320326 -0.941582 0.103991
vn 0.312188 -0.057905 0.948254
vn 0.705825 -0.060180 0.705825
vn 0.228362 -0.946415 0.228361
vn 0.103991 -0.941582 0.320326
vn 0.000000 -0.056127 -0.998424
vn -0.000000 -0.935477 -0.353388
vn 0.103991 -0.941582 -0.320326
vn -0.312188 -0.057905 -0.948254
vn -0.228362 -0.946415 -0.228361
vn -0.103991 -0.941583 -0.320325
vn 0.948254 -0.057905 -0.312188
vn 0.228362 -0.946415 -0.228362
vn 0.320326 -0.941582 -0.103991
vn -0.154643 -0.986615 -0.051734
vn -0.166195 -0.986093 0.000000
vn -0.877533 -0.479516 0.000000
vn -0.833376 -0.473586 -0.284958
vn -0.051734 -0.986615 0.154642
vn 0.000000 -0.986093 0.166195
vn -0.000000 -0.479517 0.877533
vn -0.284958 -0.473586 0.833376
vn -0.154643 -0.986615 0.051734
vn -0.112978 -0.987154 0.112978
vn -0.621731 -0.476343 0.621730
vn -0.833376 -0.473585 0.284958
vn 0.154642 -0.986615 0.051734
vn 0.166195 -0.986093 -0.000000
vn 0.877533 -0.479516 -0.000000
vn 0.833375 -0.473586 0.284958
vn 0.051734 -0.986615 0.154642
vn 0.112978 -0.987154 0.112977
vn 0.621731 -0.476343 0.621730
vn 0.284959 -0.473587 0.833375
vn 0.051734 -0.986615 -0.154643
vn -0.000000 -0.986093 -0.166194
vn 0.000000 -0.479517 -0.877533
vn 0.284959 -0.473587 -0.833375
vn -0.051734 -0.986615 -0.154642
vn -0.112978 -0.987154 -0.112978
vn -0.621731 -0.476343 -0.621731
vn -0.284958 -0.473586 -0.833376
vn 0.154642 -0.986615 -0.051734
vn 0.112978 -0.987154 -0.112977
vn 0.621731 -0.476343 -0.621730
vn 0.833376 -0.473586 -0.284958
vn -0.756580 0.601885 -0.255579
vn -0.804861 0.593464 -0.000000
vn -0.743685 0.668530 -0.000000
vn -0.697876 0.677639 -0.231894
vn -0.255579 0.601886 0.756580
vn 0.000000 0.593464 0.804861
vn 0.000000 0.668530 0.743685
vn -0.231893 0.677639 0.697876
vn -0.756580 0.601885 0.255579
vn -0.559295 0.611865 0.559295
vn -0.512535 0.688923 0.512535
vn -0.697876 0.677639 0.231893
vn 0.756580 0.601885 0.255579
vn 0.804861 0.593464 -0.000000
vn 0.743685 0.668530 -0.000000
vn 0.697876 0.677639 0.231893
vn 0.255579 0.601886 0.756580
vn 0.559295 0.611865 0.559295
vn 0.512535 0.688924 0.512535
vn 0.231893 0.677639 0.697876
vn 0.255579 0.601886 -0.756580
vn -0.000000 0.593464 -0.804861
vn -0.000000 0.668530 -0.743685
vn 0.231893 0.677639 -0.697876
vn -0.255579 0.601886 -0.756580
vn -0.559295 0.611865 -0.559294
vn -0.512535 0.688924 -0.512535
vn -0.231893 0.677639 -0.697876
vn 0.756580 0.601885 -0.255579
vn 0.559295 0.611865 -0.559295
vn 0.512535 0.688924 -0.512535
vn 0.697876 0.677639 -0.231893
vn -0.662914 0.715301 -0.221111
vn -0.697940 0.716156 -0.000000
vn -0.461148 0.872352 -0.162312
vn -0.221111 0.715301 0.662914
vn 0.000000 0.716156 0.697940
vn -0.162311 0.872351 0.461150
vn -0.662914 0.715300 0.221110
vn -0.477646 0.737365 0.477647
vn -0.461148 0.872351 0.162313
vn 0.662914 0.715301 0.221110
vn 0.697940 0.716156 -0.000000
vn 0.461148 0.872352 0.162311
vn 0.221111 0.715301 0.662914
vn 0.477647 0.737365 0.477646
vn 0.162311 0.872351 0.461149
vn 0.221111 0.715301 -0.662914
vn -0.000000 0.716156 -0.697940
vn 0.162311 0.872351 -0.461149
vn -0.221111 0.715300 -0.662915
vn -0.477646 0.737365 -0.477648
vn -0.162311 0.872351 -0.461149
vn 0.662914 0.715300 -0.221111
vn 0.477647 0.737365 -0.477646
vn 0.461149 0.872351 -0.162312
vn -0.000000 1.000000 -0.000001
vn 0.589356 0.058802 -0.805730
vn 0.911442 0.092065 -0.400997
vn 0.895495 0.048874 -0.442381
vn 0.243363 0.073319 -0.967160
vn -0.589356 0.058802 -0.805730
vn -0.895495 0.048874 -0.442381
vn 0.951050 0.076375 0.299452
vn -0.285778 0.078535 0.955072
vn -0.995725 0.058842 -0.071198
vn 0.995725 0.058842 -0.071198
vn 0.000000 0.075952 0.997111
vn 0.980816 -0.169570 0.096158
vn 0.895611 -0.115527 0.429575
vn 0.945312 -0.190685 -0.264621
vn 0.670163 -0.110522 -0.733939
vn 0.265435 0.021655 -0.963885
vn 0.000000 0.066328 -0.997798
vn -0.265435 0.021655 -0.963886
vn -0.670163 -0.110522 -0.733939
vn -0.945312 -0.190685 -0.264621
vn -0.980816 -0.169570 0.096158
vn -0.895611 -0.115527 0.429575
vn -0.620299 -0.044856 0.783082
vn -0.264954 0.005461 0.964246
vn 0.000000 0.019610 0.999808
vn 0.264954 0.005461 0.964246
vn 0.620299 -0.044856 0.783082
s 1
g pCube7
f 4/194/1 104/195/2 153/196/3 118/197/4
f 160/215/5 100/216/6 152/217/7 159/218/8
f 7/1/9 102/2/10 151/3/11 115/4/12
f 9/32/13 101/33/14 150/34/15 119/35/16
f 164/48/17 165/57/18 149/51/19 105/40/20
f 168/204/21 169/211/22 148/212/23 103/200/24
f 9/32/13 112/36/25 147/37/26 101/33/14
f 13/27/27 108/21/28 146/20/29 99/28/30
f 9/32/13 119/35/16 145/42/31 96/43/32
f 4/194/1 118/197/4 144/202/33 94/203/34
f 3/41/35 117/52/36 143/60/37 97/53/38
f 7/1/9 115/4/12 142/11/39 90/12/40
f 8/14/41 114/5/42 141/16/43 93/23/44
f 13/228/27 113/221/45 140/230/46 85/234/47
f 10/46/48 112/36/25 139/44/49 86/54/50
f 14/10/51 108/21/28 138/29/52 89/22/53
f 18/107/54 95/108/55 137/109/56 80/110/57
f 19/126/58 92/131/59 136/132/60 78/125/61
f 17/114/62 91/119/63 135/120/64 81/113/65
f 21/150/66 88/152/67 134/151/68 74/149/69
f 20/138/70 87/143/71 133/144/72 77/137/73
f 24/133/74 84/128/75 132/127/76 69/134/77
f 23/121/78 83/116/79 131/115/80 70/122/81
f 22/145/82 82/140/83 130/139/84 73/146/85
f 26/88/86 79/90/87 129/95/88 64/91/89
f 27/192/90 76/191/91 128/188/92 62/189/93
f 25/94/94 75/99/95 127/103/96 65/100/97
f 29/75/98 72/69/99 126/73/100 58/78/101
f 28/186/102 71/187/103 125/183/104 61/182/105
f 32/173/106 68/178/107 124/174/108 53/166/109
f 31/179/110 67/185/111 123/180/112 54/175/113
f 30/66/114 66/65/115 122/67/116 57/68/117
f 34/97/118 63/101/119 48/102/120
f 35/184/121 60/177/122 47/171/123
f 33/104/124 59/105/125 49/106/126
f 37/81/127 56/77/128 45/83/129
f 36/176/130 55/170/131 46/164/132
f 40/161/133 52/162/134 42/156/135
f 39/167/136 51/168/137 43/159/138
f 38/72/139 50/71/140 44/76/141
f 44/155/141 42/156/135 41/157/142
f 42/156/135 50/158/140 40/161/133
f 44/155/141 50/158/140 42/156/135
f 43/159/138 48/163/120 41/157/142
f 48/102/120 51/96/137 34/97/118
f 43/159/138 51/168/137 48/163/120
f 42/156/135 43/159/138 41/157/142
f 43/159/138 52/162/134 39/167/136
f 42/156/135 52/162/134 43/159/138
f 46/164/132 45/160/129 41/157/142
f 45/83/129 55/84/131 37/81/127
f 46/164/132 55/170/131 45/160/129
f 45/160/129 44/155/141 41/157/142
f 44/76/141 56/77/128 38/72/139
f 45/83/129 56/77/128 44/76/141
f 49/169/126 47/171/123 41/157/142
f 47/171/123 59/181/125 35/184/121
f 49/169/126 59/181/125 47/171/123
f 47/171/123 46/164/132 41/157/142
f 46/164/132 60/177/122 36/176/130
f 47/171/123 60/177/122 46/164/132
f 48/163/120 49/169/126 41/157/142
f 49/106/126 63/101/119 33/104/124
f 48/102/120 63/101/119 49/106/126
f 50/158/140 122/165/116 53/166/109 40/161/133
f 53/166/109 122/165/116 66/172/115 32/173/106
f 57/68/117 122/67/116 50/71/140 38/72/139
f 51/96/137 123/92/112 64/91/89 34/97/118
f 64/91/89 123/92/112 67/85/111 26/88/86
f 54/175/113 123/180/112 51/168/137 39/167/136
f 52/162/134 124/174/108 54/175/113 39/167/136
f 54/175/113 124/174/108 68/178/107 31/179/110
f 53/166/109 124/174/108 52/162/134 40/161/133
f 55/84/131 125/82/104 58/78/101 37/81/127
f 58/78/101 125/82/104 71/79/103 29/75/98
f 61/182/105 125/183/104 55/170/131 36/176/130
f 56/77/128 126/73/100 57/68/117 38/72/139
f 57/68/117 126/73/100 72/69/99 30/66/114
f 58/78/101 126/73/100 56/77/128 37/81/127
f 59/181/125 127/190/96 62/189/93 35/184/121
f 62/189/93 127/190/96 75/193/95 27/192/90
f 65/100/97 127/103/96 59/105/125 33/104/124
f 60/177/122 128/188/92 61/182/105 36/176/130
f 61/182/105 128/188/92 76/191/91 28/186/102
f 62/189/93 128/188/92 60/177/122 35/184/121
f 63/101/119 129/95/88 65/100/97 33/104/124
f 65/100/97 129/95/88 79/90/87 25/94/94
f 64/91/89 129/95/88 63/101/119 34/97/118
f 66/236/115 130/237/84 69/238/77 32/239/106
f 69/134/77 130/139/84 82/140/83 24/133/74
f 73/63/85 130/64/84 66/65/115 30/66/114
f 67/85/111 131/86/80 80/87/57 26/88/86
f 80/110/57 131/115/80 83/116/79 18/107/54
f 70/242/81 131/244/80 67/245/111 31/243/110
f 68/241/107 132/240/76 70/242/81 31/243/110
f 70/122/81 132/127/76 84/128/75 23/121/78
f 69/238/77 132/240/76 68/241/107 32/239/106
f 71/79/103 133/80/72 74/74/69 29/75/98
f 74/149/69 133/144/72 87/143/71 21/150/66
f 77/246/73 133/247/72 71/248/103 28/249/102
f 72/69/99 134/70/68 73/63/85 30/66/114
f 73/146/85 134/151/68 88/152/67 22/145/82
f 74/74/69 134/70/68 72/69/99 29/75/98
f 75/254/95 135/255/64 78/252/61 27/253/90
f 78/125/61 135/120/64 91/119/63 19/126/58
f 81/93/65 135/98/64 75/99/95 25/94/94
f 76/250/91 136/251/60 77/246/73 28/249/102
f 77/137/73 136/132/60 92/131/59 20/138/70
f 78/252/61 136/251/60 76/250/91 27/253/90
f 79/90/87 137/89/56 81/93/65 25/94/94
f 81/113/65 137/109/56 95/108/55 17/114/62
f 80/87/57 137/89/56 79/90/87 26/88/86
f 82/140/83 138/142/52 85/136/47 24/133/74
f 85/31/47 138/29/52 108/21/28 13/27/27
f 89/148/53 138/142/52 82/140/83 22/145/82
f 83/116/79 139/118/49 96/111/32 18/107/54
f 96/43/32 139/44/49 112/36/25 9/32/13
f 86/124/50 139/118/49 83/116/79 23/121/78
f 84/128/75 140/130/46 86/124/50 23/121/78
f 86/229/50 140/230/46 113/221/45 10/222/48
f 85/136/47 140/130/46 84/128/75 24/133/74
f 87/143/71 141/147/43 90/153/40 21/150/66
f 90/12/40 141/16/43 114/5/42 7/1/9
f 93/141/44 141/147/43 87/143/71 20/138/70
f 88/152/67 142/154/39 89/148/53 22/145/82
f 89/22/53 142/11/39 115/4/12 14/10/51
f 90/153/40 142/154/39 88/152/67 21/150/66
f 91/119/63 143/123/37 94/129/34 19/126/58
f 94/62/34 143/60/37 117/52/36 4/59/1
f 97/117/38 143/123/37 91/119/63 17/114/62
f 92/131/59 144/135/33 93/141/44 20/138/70
f 93/209/44 144/202/33 118/197/4 8/201/41
f 94/129/34 144/135/33 92/131/59 19/126/58
f 95/108/55 145/112/31 97/117/38 17/114/62
f 97/53/38 145/42/31 119/35/16 3/41/35
f 96/111/32 145/112/31 95/108/55 18/107/54
f 157/26/143 146/20/29 98/9/144 156/17/145
f 98/9/144 146/20/29 108/21/28 14/10/51
f 99/223/30 146/231/29 157/232/143 158/224/146
f 161/219/147 147/220/26 100/216/6 160/215/5
f 100/45/6 147/37/26 112/36/25 10/46/48
f 101/33/14 147/37/26 161/47/147 162/39/148
f 114/5/42 148/6/23 102/2/10 7/1/9
f 102/2/10 148/6/23 169/15/22 154/8/149
f 103/13/24 148/6/23 114/5/42 8/14/41
f 117/52/36 149/51/19 104/58/2 4/59/1
f 104/195/2 149/205/19 165/206/18 166/199/150
f 105/40/20 149/51/19 117/52/36 3/41/35
f 105/40/20 150/34/15 163/38/151 164/48/17
f 163/38/151 150/34/15 101/33/14 162/39/148
f 119/35/16 150/34/15 105/40/20 3/41/35
f 98/9/144 151/3/11 155/7/152 156/17/145
f 155/7/152 151/3/11 102/2/10 154/8/149
f 115/4/12 151/3/11 98/9/144 14/10/51
f 99/223/30 152/217/7 113/221/45 13/228/27
f 113/221/45 152/217/7 100/216/6 10/222/48
f 159/218/8 152/217/7 99/223/30 158/224/146
f 103/200/24 153/196/3 167/198/153 168/204/21
f 167/198/153 153/196/3 104/195/2 166/199/150
f 118/197/4 153/196/3 103/200/24 8/201/41
f 107/18/154 155/7/152 154/8/149 5/19/155
f 156/17/145 155/7/152 107/18/154 15/25/156
f 106/30/157 157/26/143 156/17/145 15/25/156
f 158/224/146 157/232/143 106/235/157 16/233/158
f 110/226/159 159/218/8 158/224/146 16/233/158
f 12/225/160 160/215/5 159/218/8 110/226/159
f 109/227/161 161/219/147 160/215/5 12/225/160
f 162/39/148 161/47/147 109/55/161 11/50/162
f 111/49/163 163/38/151 162/39/148 11/50/162
f 164/48/17 163/38/151 111/49/163 1/56/164
f 1/56/164 120/61/165 165/57/18 164/48/17
f 166/199/150 165/206/18 120/213/165 2/208/166
f 121/207/167 167/198/153 166/199/150 2/208/166
f 168/204/21 167/198/153 121/207/167 6/210/168
f 6/210/168 116/214/169 169/211/22 168/204/21
f 154/8/149 169/15/22 116/24/169 5/19/155
